# xmcd
#
# Track frame offsets: 
#        150
#        12437
#        23522
#        35550
#        48320
#        59825
#        73390
#        89460
#        103755
#        119092
#        139595
#        155632
#        168827
#        179892
#        190507
#        205092
#        217245
#        231287
#        242452
#        257650
#        283645
#        300235
#
# Disc length: 4171 seconds
#
# Revision: 4
# Processed by: cddbd v1.5.2PL0 Copyright (c) Steve Scherf et al.
# Submitted via: ExactAudioCopyFreeDBPlugin 1.0
#
DISCID=46104916
DTITLE=Various Artist - On The Real Side:  The Modern End of Northern
DTITLE=Soul
DYEAR=2003
DGENRE=Soul
TTITLE0=Odds and Ends - Yesterday My Love
TTITLE1=The Continental 4 - What You Gave Up
TTITLE2=Lezli Valentine - I Won't Do Anything
TTITLE3=Debbie Taylor - No Deposit No Return
TTITLE4=Soul Generation - Key to Your Heart
TTITLE5=The Heartstoppers - Marching Out of Your Life
TTITLE6=The Carstairs - It Really Hurts Me Girl
TTITLE7=Cookie Wilson - I'll Be There
TTITLE8=Eloise Laws - Love Factory
TTITLE9=Jimmy Helms - Romeo and Juliet
TTITLE10=Larry Saunders - On the Real Side
TTITLE11=Barbara Jean English - I'm Living a Lie
TTITLE12=Chocolate Syrup - You've Got a Lot to Give
TTITLE13=The Moments - I Dig Your Act
TTITLE14=The Moments and Linda Jones - So Glad I Found You
TTITLE15=Rosey Jones - Have Love Will Travel
TTITLE16=Timothy Wilson - Wedding Ring
TTITLE17=Jeanne Napoli - Forget That Girl
TTITLE18=Rhetta Young - My Man is on His Way
TTITLE19=Crown Heights Affair - Every Beat of My Heart
TTITLE20=Shelley Black - No Turning Back
TTITLE21=Silent Majority - Something New About You
EXTD=ID3G: 42
EXTT0=
EXTT1=
EXTT2=
EXTT3=
EXTT4=
EXTT5=
EXTT6=
EXTT7=
EXTT8=
EXTT9=
EXTT10=
EXTT11=
EXTT12=
EXTT13=
EXTT14=
EXTT15=
EXTT16=
EXTT17=
EXTT18=
EXTT19=
EXTT20=
EXTT21=
PLAYORDER=
